<?xml version="1.0" encoding="utf-8"?>
<!-- Generator: Adobe Illustrator 22.1.0, SVG Export Plug-In . SVG Version: 6.00 Build 0)  -->
<svg version="1.1" id="Layer_1" xmlns="http://www.w3.org/2000/svg" xmlns:xlink="http://www.w3.org/1999/xlink" x="0px" y="0px"
	 viewBox="0 0 141.7 26.9" style="enable-background:new 0 0 141.7 26.9;" xml:space="preserve">
<g>
	<path d="M12.7,13.3V6c0-3.6-1.7-5.4-5-5.4H2.3v25.8H6v-7.9l0.5-0.1l3.4,7.9h4.1l-4.2-8.6C11.7,17.1,12.7,15.6,12.7,13.3z M9,13.3
		c0,0.8-0.3,1.4-1,1.6c-0.2,0.1-0.5,0.1-1.1,0.1H6V4.3h1.3C8.4,4.3,9,4.8,9,6V13.3z"/>
	<polygon points="16,26.4 25.7,26.4 25.7,22.7 19.7,22.7 19.7,11.9 24.9,11.9 24.9,8.2 19.7,8.2 19.7,4.3 25.7,4.3 25.7,0.6 16,0.6 
			"/>
	<polygon points="31.1,0.6 27.3,26.4 31,26.4 33.6,6.5 36.3,26.4 40,26.4 36.2,0.6 	"/>
	<path d="M47.3,0.2C43.8,0.2,42,2,42,5.6v15.8c0,3.6,1.8,5.4,5.3,5.4c3.6,0,5.4-1.8,5.4-5.4v-3.5H49v3.5c0,1.2-0.5,1.7-1.6,1.7h0
		c-1.1,0-1.6-0.6-1.6-1.7V5.6c0-1.2,0.5-1.7,1.6-1.7c1.1,0,1.6,0.6,1.6,1.7v2.6h3.7V5.6C52.7,2,50.9,0.2,47.3,0.2z"/>
	<polygon points="62.7,15 59.4,15 59.4,0.6 55.7,0.6 55.7,26.4 59.4,26.4 59.4,18.7 62.7,18.7 62.7,26.4 66.4,26.4 66.4,0.6 
		62.7,0.6 	"/>
	<polygon points="72.5,0.6 68.6,26.4 72.4,26.4 75,6.5 77.6,26.4 81.4,26.4 77.6,0.6 	"/>
	<polygon points="87.4,0.6 83.6,0.6 83.6,26.4 93.3,26.4 93.3,22.7 87.4,22.7 	"/>
	<rect x="95.6" y="0.6" width="3.7" height="25.8"/>
	<polygon points="102.8,26.4 112.4,26.4 112.4,22.7 106.5,22.7 106.5,11.9 111.6,11.9 111.6,8.2 106.5,8.2 106.5,4.3 112.4,4.3 
		112.4,0.6 102.8,0.6 	"/>
	<polygon points="122.5,15.6 118.9,0.6 115.2,0.6 115.2,26.4 118.8,26.4 118.8,11.9 122.2,26.4 125.9,26.4 125.9,0.6 122.5,0.6 	"/>
	<path d="M139.7,8.2V5.6c0-3.6-1.8-5.4-5.4-5.4c-3.6,0-5.3,1.8-5.3,5.4v0.8c0,2.3,1.2,4.3,3.5,6c2.3,1.7,3.5,3.1,3.5,4.2v4.8
		c0,1.2-0.5,1.7-1.6,1.7h0c-1.1,0-1.6-0.6-1.6-1.7v-3.5h-3.7v3.5c0,3.6,1.8,5.4,5.4,5.4c3.6,0,5.3-1.8,5.3-5.4v-4.9
		c0-2.4-1.2-4.4-3.5-6c-2.3-1.7-3.5-3.1-3.5-4.4V5.6c0-1.2,0.5-1.7,1.6-1.7c1.1,0,1.6,0.6,1.6,1.7v2.6H139.7z"/>
</g>
</svg>
